HIERARCHY
ROOT Hips
{
	OFFSET -1.602300 6.242603 43.997101
	CHANNELS 6 Xposition Yposition Zposition Zrotation Xrotation Yrotation
	JOINT Chest
	{
		OFFSET -0.204900 1.598101 7.917301
		CHANNELS 6 Xposition Yposition Zposition Zrotation Xrotation Yrotation
		JOINT Chest2
		{
			OFFSET 0.000000 0.000000 3.404099
			CHANNELS 6 Xposition Yposition Zposition Zrotation Xrotation Yrotation
			JOINT Neck
			{
				OFFSET 0.000000 0.000000 7.928600
				CHANNELS 6 Xposition Yposition Zposition Zrotation Xrotation Yrotation
				JOINT Head
				{
					OFFSET 0.000000 0.000000 2.173897
					CHANNELS 6 Xposition Yposition Zposition Zrotation Xrotation Yrotation
					End Site
					{
						OFFSET 0.000000 0.000001 10.404503
					}
				}
			}
			JOINT LeftCollar
			{
				OFFSET 2.833800 -1.396299 4.843300
				CHANNELS 6 Xposition Yposition Zposition Zrotation Xrotation Yrotation
				JOINT LeftShoulder
				{
					OFFSET 4.363600 0.000000 0.000000
					CHANNELS 6 Xposition Yposition Zposition Zrotation Xrotation Yrotation
					JOINT LeftElbow
					{
						OFFSET 0.000000 -0.000001 -10.306900
						CHANNELS 6 Xposition Yposition Zposition Zrotation Xrotation Yrotation
						JOINT LeftWrist
						{
							OFFSET 0.000000 -0.000001 -12.404900
							CHANNELS 6 Xposition Yposition Zposition Zrotation Xrotation Yrotation
							End Site
							{
								OFFSET 0.000000 0.000000 -2.173901
							}
						}
					}
				}
			}
			JOINT RightCollar
			{
				OFFSET -2.354800 -1.897200 5.063099
				CHANNELS 6 Xposition Yposition Zposition Zrotation Xrotation Yrotation
				JOINT RightShoulder
				{
					OFFSET -4.375800 0.000000 0.000000
					CHANNELS 6 Xposition Yposition Zposition Zrotation Xrotation Yrotation
					JOINT RightElbow
					{
						OFFSET 0.000000 -0.000001 -10.005001
						CHANNELS 6 Xposition Yposition Zposition Zrotation Xrotation Yrotation
						JOINT RightWrist
						{
							OFFSET 0.000000 -0.000001 -13.174900
							CHANNELS 6 Xposition Yposition Zposition Zrotation Xrotation Yrotation
							End Site
							{
								OFFSET 0.000000 0.000000 -2.173901
							}
						}
					}
				}
			}
		}
	}
	JOINT LeftHip
	{
		OFFSET 2.240600 0.386800 -2.614101
		CHANNELS 6 Xposition Yposition Zposition Zrotation Xrotation Yrotation
		JOINT LeftKnee
		{
			OFFSET 0.000000 -0.000001 -18.592899
			CHANNELS 6 Xposition Yposition Zposition Zrotation Xrotation Yrotation
			JOINT LeftAnkle
			{
				OFFSET 0.000000 -0.000001 -18.765800
				CHANNELS 6 Xposition Yposition Zposition Zrotation Xrotation Yrotation
				End Site
				{
					OFFSET 0.000000 -8.655000 0.000000
				}
			}
		}
	}
	JOINT RightHip
	{
		OFFSET -2.014900 -0.220900 -2.615898
		CHANNELS 6 Xposition Yposition Zposition Zrotation Xrotation Yrotation
		JOINT RightKnee
		{
			OFFSET 0.000000 -0.000001 -18.633900
			CHANNELS 6 Xposition Yposition Zposition Zrotation Xrotation Yrotation
			JOINT RightAnkle
			{
				OFFSET 0.000000 -0.000001 -18.285101
				CHANNELS 6 Xposition Yposition Zposition Zrotation Xrotation Yrotation
				End Site
				{
					OFFSET 0.000000 -7.524500 0.000000
				}
			}
		}
	}
}
MOTION
Frames: 9
Frame Time: 0.041667
6.689600 9.502705 43.293709 1.505885 -0.609992 1.754522 -0.204901 1.598100 7.917309 -1.336135 2.329995 -2.644091 -0.000000 0.000001 3.404107 5.120613 -4.862868 0.136219 0.000001 -0.000001 7.928599 -1.234189 4.796088 0.281519 -0.000000 -0.000000 2.173908 -0.206185 -1.349727 0.877805 2.833801 -1.396302 4.843302 -6.391796 6.259778 3.811676 4.363599 0.000002 -0.000000 -54.075113 -10.950299 -52.399138 0.000003 0.000009 -10.306903 -170.202235 -131.689681 -146.388507 0.000003 0.000007 -12.404897 -127.857357 171.838421 -160.355957 -2.354799 -1.897201 5.063104 17.079201 8.392206 -4.760253 -4.375795 0.000007 -0.000000 35.031910 -23.326192 58.796652 -0.000006 0.000010 -10.005002 -63.914752 -18.078693 -85.566383 -0.000009 0.000001 -13.174899 128.551509 -0.331697 57.340237 2.240600 0.386801 -2.614094 -4.781240 -4.958390 -3.620901 -0.000002 0.000000 -18.592897 5.663031 20.314490 15.816640 0.000000 -0.000001 -18.765799 13.511698 6.104159 7.603945 -2.014897 -0.220899 -2.615895 -74.013801 -38.122233 -32.698588 -0.000002 0.000006 -18.633892 134.697259 49.383753 -139.496983 0.000005 0.000007 -18.285095 8.304812 54.770519 -40.061935
6.692100 9.492505 43.293404 1.586461 -0.651619 1.720373 -0.204901 1.598101 7.917308 -1.421138 2.373364 -2.569013 -0.000000 0.000000 3.404105 5.178506 -4.887036 0.137730 0.000000 0.000001 7.928597 -1.193995 4.748280 0.185471 0.000000 -0.000001 2.173906 -0.269286 -1.289837 0.985400 2.833800 -1.396299 4.843306 -6.367144 6.265592 3.771073 4.363599 0.000010 0.000002 -54.066586 -11.010803 -52.326370 0.000001 0.000006 -10.306909 -170.062134 -131.743954 -146.286246 0.000005 0.000004 -12.404901 -127.993852 171.824200 -160.340234 -2.354801 -1.897198 5.063102 17.000230 8.387278 -4.816856 -4.375795 0.000008 0.000000 35.058565 -23.287105 58.793285 -0.000003 0.000008 -10.005006 -64.001004 -18.213662 -85.639535 -0.000006 0.000005 -13.174899 128.734135 -0.383402 57.403034 2.240599 0.386801 -2.614095 -4.848013 -4.879973 -3.541252 -0.000000 0.000001 -18.592897 5.586521 20.244307 15.792897 0.000000 -0.000002 -18.765799 13.564067 6.076045 7.706244 -2.014900 -0.220898 -2.615896 -74.199494 -38.121840 -32.748889 0.000001 0.000005 -18.633884 134.939540 49.384423 -139.556338 0.000002 0.000008 -18.285099 8.501988 54.645379 -40.344384
6.693999 9.483503 43.292408 1.680401 -0.674562 1.674870 -0.204900 1.598102 7.917307 -1.520536 2.391956 -2.484425 0.000000 -0.000002 3.404096 5.236742 -4.913058 0.138790 0.000001 -0.000003 7.928599 -1.174666 4.693811 0.101321 0.000000 0.000000 2.173895 -0.302339 -1.440877 1.010392 2.833801 -1.396305 4.843308 -6.358650 6.281721 3.758089 4.363598 0.000008 -0.000003 -54.045818 -11.039400 -52.268757 0.000012 0.000008 -10.306895 -169.853062 -131.798458 -146.135845 0.000002 0.000004 -12.404894 -128.159197 171.815485 -160.352857 -2.354800 -1.897202 5.063105 16.938753 8.390992 -4.901564 -4.375796 0.000007 0.000006 35.096340 -23.206206 58.829082 -0.000006 0.000006 -10.005003 -64.116311 -18.344997 -85.721169 -0.000006 0.000009 -13.174898 128.615003 -0.324557 57.365140 2.240599 0.386800 -2.614092 -4.932113 -4.835353 -3.473358 -0.000002 0.000000 -18.592894 5.588957 20.222090 15.772374 0.000000 -0.000002 -18.765797 13.548473 6.056800 7.743716 -2.014898 -0.220898 -2.615893 -74.319152 -38.166213 -32.760623 -0.000000 0.000007 -18.633892 135.087222 49.395409 -139.599026 0.000003 0.000008 -18.285095 8.692061 54.504681 -40.660191
6.694699 9.475403 43.290802 1.773961 -0.667610 1.637225 -0.204899 1.598097 7.917304 -1.619224 2.363429 -2.421909 0.000001 0.000000 3.404102 5.293395 -4.935264 0.140912 0.000000 -0.000001 7.928596 -1.186266 4.641233 0.051339 -0.000000 0.000001 2.173901 -0.325480 -1.467760 1.021244 2.833801 -1.396301 4.843307 -6.384210 6.317855 3.790415 4.363599 0.000009 0.000001 -53.991699 -11.047621 -52.237423 0.000000 0.000005 -10.306902 -169.556017 -131.882606 -145.911706 0.000005 0.000007 -12.404892 -128.386560 171.816605 -160.385614 -2.354801 -1.897199 5.063103 16.917762 8.422402 -5.000305 -4.375795 0.000008 -0.000002 35.111048 -23.111881 58.892568 -0.000008 0.000010 -10.005001 -64.246665 -18.467250 -85.807906 -0.000007 0.000003 -13.174893 128.469397 -0.275044 57.320238 2.240600 0.386797 -2.614099 -5.022419 -4.836565 -3.440542 -0.000002 -0.000000 -18.592896 5.669425 20.254096 15.760151 -0.000001 0.000002 -18.765795 13.467756 6.044929 7.708938 -2.014895 -0.220901 -2.615897 -74.329001 -38.246887 -32.727002 0.000000 0.000007 -18.633886 135.081498 49.427846 -139.609914 0.000006 0.000006 -18.285097 8.809826 54.444814 -40.767220
6.695099 9.467204 43.289410 1.853401 -0.645910 1.623020 -0.204901 1.598103 7.917308 -1.701933 2.310357 -2.396578 0.000000 0.000002 3.404105 5.349382 -4.953834 0.144381 -0.000000 -0.000001 7.928596 -1.230377 4.589621 0.039045 -0.000000 0.000001 2.173904 -0.331690 -1.491223 0.996847 2.833800 -1.396301 4.843305 -6.438213 6.365973 3.860238 4.363600 0.000010 -0.000003 -53.896357 -11.051808 -52.221956 0.000001 0.000003 -10.306901 -169.232225 -131.973202 -145.649864 0.000005 -0.000001 -12.404893 -128.644523 171.826249 -160.431868 -2.354801 -1.897202 5.063104 16.925166 8.476237 -5.087814 -4.375796 0.000006 0.000003 35.091671 -23.036089 58.951615 -0.000003 0.000010 -10.005005 -64.372948 -18.591855 -85.899403 -0.000005 0.000011 -13.174894 128.292454 -0.235303 57.278082 2.240600 0.386803 -2.614098 -5.103196 -4.860102 -3.442243 -0.000003 0.000001 -18.592892 5.775907 20.319657 15.755670 0.000001 -0.000002 -18.765800 13.370060 6.033257 7.626080 -2.014896 -0.220897 -2.615901 -74.300423 -38.311880 -32.689965 -0.000001 0.000003 -18.633890 135.011735 49.469841 -139.599545 0.000003 0.000003 -18.285097 8.861516 54.447027 -40.725645
6.694800 9.458505 43.288105 1.916998 -0.608639 1.615858 -0.204901 1.598101 7.917317 -1.767315 2.232353 -2.396263 0.000000 0.000002 3.404105 5.401527 -4.967337 0.149174 0.000000 -0.000001 7.928592 -1.292705 4.541370 0.061391 0.000000 0.000000 2.173905 -0.329508 -1.516270 0.945365 2.833802 -1.396301 4.843297 -6.508879 6.421356 3.967357 4.363597 0.000004 0.000004 -53.771545 -11.052302 -52.217892 -0.000001 0.000004 -10.306905 -168.913761 -132.057896 -145.379197 0.000009 0.000004 -12.404893 -128.905436 171.840552 -160.489556 -2.354802 -1.897202 5.063097 16.962500 8.555082 -5.144070 -4.375797 0.000006 0.000002 35.033734 -22.991942 58.988280 -0.000001 0.000013 -10.005001 -64.497347 -18.719221 -85.993461 -0.000005 0.000005 -13.174897 128.097179 -0.207899 57.252415 2.240599 0.386801 -2.614091 -5.171083 -4.906868 -3.460128 -0.000000 0.000000 -18.592894 5.899653 20.412405 15.755646 -0.000001 -0.000000 -18.765799 13.262564 6.022325 7.497660 -2.014897 -0.220897 -2.615892 -74.212430 -38.380243 -32.636047 -0.000003 0.000007 -18.633884 134.866839 49.520787 -139.567662 0.000005 0.000008 -18.285095 8.856244 54.495200 -40.575056
6.694200 9.449306 43.287403 1.959426 -0.562073 1.616771 -0.204900 1.598103 7.917306 -1.809728 2.137068 -2.421227 0.000000 0.000001 3.404112 5.445050 -4.972236 0.155122 -0.000000 0.000000 7.928604 -1.356342 4.496996 0.108460 0.000000 -0.000000 2.173910 -0.329458 -1.544455 0.877615 2.833801 -1.396299 4.843307 -6.577392 6.477013 4.086165 4.363596 0.000010 -0.000002 -53.623054 -11.077292 -52.204953 0.000002 0.000004 -10.306898 -168.655566 -132.123398 -145.135673 0.000008 -0.000004 -12.404890 -129.145476 171.851275 -160.546110 -2.354801 -1.897200 5.063109 17.020860 8.654280 -5.147333 -4.375799 0.000009 -0.000001 34.942367 -22.997706 58.980685 -0.000006 0.000012 -10.005003 -64.612497 -18.844538 -86.083319 -0.000005 0.000000 -13.174898 127.907245 -0.192461 57.251896 2.240600 0.386803 -2.614098 -5.219298 -4.965234 -3.488319 -0.000002 0.000000 -18.592901 5.996565 20.513913 15.765369 -0.000000 0.000000 -18.765799 13.181797 6.000729 7.348547 -2.014898 -0.220896 -2.615898 -74.129771 -38.428915 -32.605943 -0.000001 0.000008 -18.633890 134.725686 49.571812 -139.530902 0.000006 0.000006 -18.285095 8.818389 54.561224 -40.386751
6.692998 9.439903 43.287006 1.978379 -0.515187 1.652189 -0.204900 1.598099 7.917307 -1.826303 2.037442 -2.493157 -0.000001 0.000001 3.404104 5.476201 -4.967790 0.161407 0.000000 -0.000005 7.928605 -1.408108 4.454629 0.167829 -0.000000 0.000001 2.173903 -0.338302 -1.575031 0.803910 2.833801 -1.396305 4.843308 -6.627830 6.526833 4.195284 4.363598 0.000003 0.000007 -53.477728 -11.147806 -52.184947 0.000005 0.000005 -10.306902 -168.454007 -132.228064 -144.908310 0.000006 0.000003 -12.404891 -129.385844 171.881383 -160.573103 -2.354800 -1.897205 5.063106 17.091771 8.765874 -5.091759 -4.375798 0.000008 -0.000004 34.825762 -23.064056 58.919486 -0.000004 0.000009 -10.005002 -64.707143 -18.962926 -86.163683 -0.000005 0.000003 -13.174898 127.460455 -0.073130 57.197452 2.240601 0.386799 -2.614097 -5.247851 -5.024160 -3.554306 -0.000002 0.000000 -18.592897 6.065460 20.620158 15.784781 -0.000000 -0.000001 -18.765800 13.125849 5.969910 7.194483 -2.014897 -0.220899 -2.615899 -74.038308 -38.435855 -32.594998 -0.000000 0.000006 -18.633890 134.581556 49.623626 -139.494784 0.000007 0.000006 -18.285095 8.739446 54.645991 -40.139475
6.691201 9.430404 43.286606 1.983140 -0.499560 1.683517 -0.204901 1.598102 7.917304 -1.828396 1.986364 -2.552993 -0.000000 0.000000 3.404106 5.499994 -4.962489 0.166666 0.000000 0.000002 7.928599 -1.444481 4.402231 0.217616 0.000000 0.000000 2.173895 -0.358538 -1.605178 0.736980 2.833801 -1.396299 4.843302 -6.636184 6.551729 4.265982 4.363599 0.000008 -0.000004 -53.363882 -11.240996 -52.136302 0.000005 0.000007 -10.306900 -168.327949 -132.320599 -144.750614 0.000006 -0.000000 -12.404900 -129.564194 171.871998 -160.554675 -2.354801 -1.897197 5.063104 17.134033 8.855410 -4.989526 -4.375793 0.000008 -0.000004 34.727352 -23.166590 58.806754 -0.000001 0.000015 -10.005004 -64.788019 -19.052611 -86.231890 -0.000005 0.000006 -13.174893 127.370624 -0.066634 57.234202 2.240599 0.386801 -2.614087 -5.260331 -5.050311 -3.611198 -0.000001 -0.000001 -18.592897 6.073349 20.712048 15.814912 -0.000001 -0.000001 -18.765797 13.121180 5.926255 7.057363 -2.014896 -0.220899 -2.615895 -73.941558 -38.425616 -32.567185 -0.000000 0.000008 -18.633888 134.466508 49.668108 -139.467859 0.000005 0.000005 -18.285095 8.652978 54.698822 -39.944811
